# xmcd
#
# Track frame offsets: 
#        183
#        33130
#        72033
#        91148
#        125340
#        167520
#        194768
#
# Disc length: 3118 seconds
#
# Revision: 30
# Processed by: cddbd v1.5.2PL0 Copyright (c) Steve Scherf et al.
# Submitted via: ExactAudioCopyFreeDBPlugin 1.0
#
DISCID=520c2c07
DTITLE=Berliner Philharmoniker - Holst: The Planets
DYEAR=1981
DGENRE=Classical
TTITLE0=Mars, the Bringer of War
TTITLE1=Venus, the Bringer of Peace
TTITLE2=Mercury, the Winged Messenger
TTITLE3=Jupiter, the Bringer of Jollity
TTITLE4=Saturn, the Bringer of Old Age
TTITLE5=Uranus, the Magician
TTITLE6=Neptune, the Mystic
EXTD=Berliner Philharmoniker\nDirector Herbert Von Karajan YEAR: 1981
EXTT0=
EXTT1=
EXTT2=
EXTT3=
EXTT4=
EXTT5=
EXTT6=
PLAYORDER=
